<svg xmlns="http://www.w3.org/2000/svg" xmlns:xlink="http://www.w3.org/1999/xlink" viewBox="0 0 329.77 104.1"><defs><linearGradient id="未命名的渐变_32" x1="105.22" y1="49.86" x2="45.89" y2="82.52" gradientUnits="userSpaceOnUse"><stop offset="0" stop-color="#fff" stop-opacity="0"/><stop offset="1" stop-color="#fff"/></linearGradient></defs><title>MOSN logo</title><g id="图层_2" data-name="图层 2"><g id="图层_1-2" data-name="图层 1"><polygon points="273.9 79.91 273.88 49.09 242.34 49.11 242.34 36.9 273.78 36.9 273.75 27.74 231.28 27.76 231.3 58.59 262.85 58.56 262.85 70.77 231.34 70.77 231.37 79.91 273.9 79.91" style="fill:#fff"/><path d="M175.76,79.91l46.59,0,0-52-46.56,0Zm11-43.1h24.5V70.94h-24.5Z" style="fill:#fff"/><path d="M329.77,79.91l0-51.74-46.56,0V79.91h11v-41h24.5v41Z" style="fill:#fff"/><polygon points="165.54 79.82 165.46 27.61 155.21 27.69 140.1 42.55 125 27.7 114.66 27.7 114.75 79.91 124.39 79.82 124.3 40.29 140.1 55.84 155.91 40.29 155.91 79.91 165.54 79.82" style="fill:#fff"/><polygon points="53.57 57.41 90.27 36.16 89.77 80.29 53.09 100.37 53.57 57.41" style="fill:url(#未命名的渐变_32)"/><path d="M92.42,32.59a1,1,0,0,0-1,0L51.13,55.47a2,2,0,0,0-1,1.75v45.85a1,1,0,0,0,.52.89,1,1,0,0,0,.52.14,1,1,0,0,0,.51-.14L91.93,80.78a2,2,0,0,0,1-1.74V33.49A1,1,0,0,0,92.42,32.59ZM84.79,46V75.49L58.54,90.6V60.91Z" style="fill:#fff"/><path d="M85.09,22,47.48.27a2,2,0,0,0-2,0L1,25.94a2,2,0,0,0-1,1.74V79a2,2,0,0,0,1,1.73L37.77,102a1,1,0,0,0,.52.14,1,1,0,0,0,.52-.14,1,1,0,0,0,.52-.89V93.48a1.6,1.6,0,0,0-.79-1.38L9.33,75.24a.76.76,0,0,1-.39-.66V32.13a.77.77,0,0,1,.39-.67L46.09,10.24a.76.76,0,0,1,.77,0l30,17.32a1.61,1.61,0,0,0,1.59,0l6.64-3.78a1,1,0,0,0,.52-.9A1,1,0,0,0,85.09,22Z" style="fill:#fff"/></g></g></svg>
