<svg xmlns="http://www.w3.org/2000/svg" xmlns:xlink="http://www.w3.org/1999/xlink" viewBox="0 0 111.75 132.49"><defs><linearGradient id="未命名的渐变_32" x1="122.85" y1="75.87" x2="43.91" y2="104.39" gradientUnits="userSpaceOnUse"><stop offset="0" stop-color="#fff" stop-opacity="0"/><stop offset="1" stop-color="#fff"/></linearGradient></defs><title>资源 6</title><g id="图层_2" data-name="图层 2"><g id="图层_1-2" data-name="图层 1"><polygon points="64.31 75.71 109.24 49.7 108.63 103.72 63.72 128.31 64.31 75.71" style="fill:url(#未命名的渐变_32)"/><path d="M60.83,74.49v58l50.92-29.31V45.55Zm42.46,23.79L69.64,117.66V79.57l33.65-19.13Z" style="fill:#fff"/><path d="M98.89,34.74l9.79-5.53L59.11.26A1.82,1.82,0,0,0,58.17,0a1.89,1.89,0,0,0-1,.26L.21,33.54A.43.43,0,0,0,0,33.9L0,101a.44.44,0,0,0,.21.37l46.6,26.76V116.91L9.73,95.6l0-56.36,48.47-28.3Z" style="fill:#fff"/></g></g></svg>