<svg xmlns="http://www.w3.org/2000/svg" xmlns:xlink="http://www.w3.org/1999/xlink" viewBox="0 0 52.77 62.57"><defs><style>.cls-1{fill:url(#未命名的渐变_2);}</style><linearGradient id="未命名的渐变_2" x1="30.09" y1="42.04" x2="51.59" y2="42.04" gradientUnits="userSpaceOnUse"><stop offset="0" stop-color="#0074e1" stop-opacity="0"/><stop offset="0.19" stop-color="#0074e1" stop-opacity="0.23"/><stop offset="0.48" stop-color="#0074e1" stop-opacity="0.56"/><stop offset="0.72" stop-color="#0074e1" stop-opacity="0.8"/><stop offset="0.9" stop-color="#0074e1" stop-opacity="0.94"/><stop offset="1" stop-color="#0074e1"/></linearGradient></defs><title>资源 7</title><g id="图层_2" data-name="图层 2"><g id="图层_1-2" data-name="图层 1"><polygon class="cls-1" points="30.37 35.76 51.59 23.47 51.3 48.98 30.09 60.6 30.37 35.76"/><path d="M28.73,35.18V62.57l24-13.84V21.51ZM48.78,46.42,32.89,55.56v-18l15.89-9Z"/><path d="M46.7,16.4l4.62-2.6L27.92.12a.9.9,0,0,0-.9,0L.1,15.84A.21.21,0,0,0,0,16V47.68a.21.21,0,0,0,.1.18l22,12.64V55.21L4.6,45.15l0-26.62L27.47,5.17Z"/></g></g></svg>